    <svg
      xmlns="http://www.w3.org/2000/svg"
      width="1em"
      height="1em"
      viewBox="0 0 48 48"
    >
      <path
        fill="none"
        stroke="currentColor"
        strokeLinecap="round"
        strokeLinejoin="round"
        d="M37.675 8.705c.361-1.178-.083-1.595-.599-1.882L33.278 4.71c-.541-.3-1.135-.502-1.592 1.021c-2.192 7.307-4.493 15.152-9.902 21.105c-2.988 3.285-2.375-9.697-2.344-13.872c.008-1.123.125-2.216-1.035-2.704L15.52 9.045c-.454-.192-1.105-.557-1.342.468c-2.24 9.694-5.403 25.498-3.287 28.667c1.5 2.244 3.75 2.272 3.756.206c.01-5.903 1.14-11.661 2.042-17.428c-.144 7.517 2.152 9.087 4.826 9.144c3.548.075 7.547-7.543 8.697-11.437c-1.672 16.249-5.15 23.587 1.213 24.769c1.725.32 1.412-.592 1.407-1.194c-.11-11.627 1.916-20.943 4.843-33.534z"
      ></path>
    </svg>