
<svg
  xmlns="http://www.w3.org/2000/svg"
  width="16px"
  height="16px"
  viewBox="0 0 48 48"
>
  <path
    fill="none"
    stroke="currentColor"
    strokeLinecap="round"
    strokeLinejoin="round"
    d="M13.44 12.144c2.323-2.334 8.135-2.334 9.997 4.006c3.95-7.495 10.928-9.245 14.418-4.006m-2.659 10.457c2.39 0 4.33 2.469 4.33 5.52s-1.94 5.521-4.33 5.521c-2.379 0-4.32-2.468-4.32-5.52s1.941-5.52 4.32-5.52m-17.1.291c1.65 0 2.996 2.21 2.996 4.937s-1.346 4.937-2.996 4.937c-1.66 0-3.007-2.21-3.007-4.937s1.347-4.937 3.007-4.937"
  ></path>
  <path
    fill="none"
    stroke="currentColor"
    strokeLinecap="round"
    strokeLinejoin="round"
    d="M32.626 16.206c5.453 0 9.874 5.072 9.874 11.332s-4.42 11.333-9.874 11.333c-5.464 0-9.885-5.072-9.885-11.333s4.421-11.332 9.885-11.332"
  ></path>
  <path
    fill="none"
    stroke="currentColor"
    strokeLinecap="round"
    strokeLinejoin="round"
    d="M23.617 32.486c-4.365 9.29-20.05 8.135-17.919-7.562c1.93-9.301 14.72-11.624 17.705-1.986"
  ></path>
</svg>

